<svg height="512pt" viewBox="0 0 512 512" width="512pt" xmlns="http://www.w3.org/2000/svg"><path d="m411.898438 145.800781c-16.542969 0-32.765626 4.140625-47.195313 11.847657l-58.625-70.695313c5.0625-8.71875 7.820313-18.699219 7.820313-29.054687 0-31.925782-25.972657-57.898438-57.898438-57.898438s-57.898438 25.972656-57.898438 57.898438c0 17.105468 7.65625 33.066406 20.167969 43.878906l-51.253906 137.289062c-9.476563-2.035156-19.179687-3.066406-29.015625-3.066406-76.09375 0-138 61.90625-138 138s61.90625 138 138 138 138-61.90625 138-138c0-13.640625-1.960938-26.941406-5.816406-39.742188l61.371094-28.703124c18.675781 25.042968 48.460937 40.445312 80.34375 40.445312 55.195312 0 100.101562-44.90625 100.101562-100.101562 0-55.195313-44.902344-100.097657-100.101562-100.097657zm-155.898438-105.800781c9.871094 0 17.898438 8.027344 17.898438 17.898438 0 10.285156-8.363282 17.902343-17.898438 17.902343-9.863281 0-17.898438-8-17.898438-17.902343 0-9.871094 8.027344-17.898438 17.898438-17.898438zm-118 432c-54.035156 0-98-43.964844-98-98s43.964844-98 98-98c38.210938 0 72.671875 22.070312 88.78125 56.472656h.003906c.65625 1.925782 9.214844 17.574219 9.214844 41.527344 0 54.035156-43.964844 98-98 98zm173.800781-226.101562c0 7.996093.929688 15.832031 2.761719 23.445312l-61.371094 28.699219c-12.347656-18.628907-29.171875-34.160157-48.710937-44.964844l51.25-137.285156c.089843 0 .179687.007812.269531.007812 6.601562 0 13.121094-1.144531 19.28125-3.320312l58.613281 70.679687c-14.207031 17.628906-22.09375 39.648438-22.09375 62.738282zm100.097657 60.101562c-23.210938 0-44.578126-13.589844-54.449219-34.625 0-.003906 0-.003906-.003907-.007812 0-.007813-.003906-.011719-.007812-.015626v-.003906c-3.742188-7.980468-5.636719-16.539062-5.636719-25.449218 0-33.527344 27.222657-60.097657 60.097657-60.097657 33.140624 0 60.101562 26.960938 60.101562 60.097657 0 33.140624-26.960938 60.101562-60.101562 60.101562zm0 0"/></svg>